# xmcd
#
# Track frame offsets:
#	150
#	12852
#	25913
#	38461
#	51955
#	65250
#	77972
#	92481
#	107217
#	119459
#	132504
#	144688
#	157258
#	171201
#	184878
#	199036
#	213196
#	225844
#	239244
#	252216
#	265339
#	277612
#	290191
#	303362
#	315934
#
# Disc length: 4396 seconds
#
# Revision: 0
# Processed by: cddbd v1.4PL0 Copyright (c) Steve Scherf et al.
# Submitted via: dBpowerAMP V4.0
#
DISCID=64112a19
DTITLE=Tommy McClennan and Robert Petway - Cotton Pickin' Blues
DYEAR=2000
DGENRE=Blues
TTITLE0=Bottle It Up And Go
TTITLE1=Catfish Blues
TTITLE2=Cotten Patch Blues
TTITLE3=Whiskey Head Woman
TTITLE4=Ride 'Em On Down
TTITLE5=Cross Cut Saw
TTITLE6=Let Me Be Your Boss
TTITLE7=Des'e My Blues
TTITLE8=Brown Skin Girl
TTITLE9=Bertha Lee Blues
TTITLE10=You Can Mistreat Me Here
TTITLE11=Classy Mae Blues
TTITLE12=Boogie Woogie Woman
TTITLE13=Blues Trip Me This Morning
TTITLE14=New Shake 'Em On Down
TTITLE15=My Little Girl
TTITLE16=It's A Crying Pity
TTITLE17=Travelin' Highway Man
TTITLE18=In The Evening
TTITLE19=Mozelle Blues
TTITLE20=Mr So and So Blues
TTITLE21=I'm A Guitar King
TTITLE22=Rockin' Chair Blues
TTITLE23=New Highway No. 51
TTITLE24=Roll Me Baby
EXTD=
EXTT0=
EXTT1=
EXTT2=
EXTT3=
EXTT4=
EXTT5=
EXTT6=
EXTT7=
EXTT8=
EXTT9=
EXTT10=
EXTT11=
EXTT12=
EXTT13=
EXTT14=
EXTT15=
EXTT16=
EXTT17=
EXTT18=
EXTT19=
EXTT20=
EXTT21=
EXTT22=
EXTT23=
EXTT24=
PLAYORDER=
